<?xml version="1.0" encoding="UTF-8"?>
<svg width="24" height="24" version="1.1" viewBox="0 0 24 24" xmlns="http://www.w3.org/2000/svg">
 <path d="m20 6h-3.17l-1.83-2h-6l-1.83 2h-3.17c-1.1046 0-2 0.89543-2 2v10c0 1.1046 0.89543 2 2 2h16c1.1046 0 2-0.89543 2-2v-10c0-1.1046-0.89543-2-2-2m0 12h-16v-10h4.05l1.83-2h4.24l1.83 2h4.05v10m-8-10c-2.4853 0-4.5 2.0147-4.5 4.5 0 2.4853 2.0147 4.5 4.5 4.5 2.4853 0 4.5-2.0147 4.5-4.5 0-2.4853-2.0147-4.5-4.5-4.5m0 7c-1.3807 0-2.5-1.1193-2.5-2.5s1.1193-2.5 2.5-2.5 2.5 1.1193 2.5 2.5-1.1193 2.5-2.5 2.5z" fill="#f00"/>
</svg>
