<?xml version="1.0" encoding="UTF-8"?>
<svg width="24" height="24" version="1.1" viewBox="0 0 24 24" xmlns="http://www.w3.org/2000/svg">
 <path d="m8.5 7c-0.8 0-1.5 0.7-1.5 1.5s0.7 1.5 1.5 1.5 1.5-0.7 1.5-1.5-0.7-1.5-1.5-1.5m7 7c-0.8 0-1.5 0.7-1.5 1.5s0.7 1.5 1.5 1.5 1.5-0.7 1.5-1.5-0.7-1.5-1.5-1.5m0-7c-0.8 0-1.5 0.7-1.5 1.5s0.7 1.5 1.5 1.5 1.5-0.7 1.5-1.5-0.7-1.5-1.5-1.5m-3.5 3.5c-0.8 0-1.5 0.7-1.5 1.5s0.7 1.5 1.5 1.5 1.5-0.7 1.5-1.5-0.7-1.5-1.5-1.5m-3.5 3.5c-0.8 0-1.5 0.7-1.5 1.5s0.7 1.5 1.5 1.5 1.5-0.7 1.5-1.5-0.7-1.5-1.5-1.5zm9.5-8v12h-12v-12h12m0.22222-2h-12.444c-0.97778 0-1.7778 0.8-1.7778 1.7778v12.444c0 0.97778 0.8 1.7778 1.7778 1.7778h12.444c0.97778 0 1.7778-0.8 1.7778-1.7778v-12.444c0-0.97778-0.8-1.7778-1.7778-1.7778"/>
</svg>
