<?xml version="1.0" encoding="UTF-8"?>
<svg width="24" height="24" version="1.1" viewBox="0 0 24 24" xmlns="http://www.w3.org/2000/svg">
 <path d="m3.5156 3.5156-0.70898 0.70703 1.2246 1.2227v0.0019531c-0.020337 0.10711-0.03125 0.21728-0.03125 0.33008v12.445c0 0.97778 0.79957 1.7773 1.7773 1.7773h12.445c0.1128 0 0.22297-0.010913 0.33008-0.03125h0.001954l1.2227 1.2246 0.70703-0.70898-16.969-16.969zm2.2617 0.48438c-0.11269 0-0.22304 0.011012-0.33008 0.03125l1.9688 1.9688h0.38477v0.38477l3.5 3.5v-3.8848h1.4492v5.334l2.6543 2.6562h0.001953c0.47982-0.069936 0.84375-0.48082 0.84375-0.99023v-7h1.75v10.584l1.9688 1.9688c0.020238-0.10704 0.03125-0.21739 0.03125-0.33008v-12.445c0-0.97778-0.79957-1.7773-1.7773-1.7773h-12.445zm0.22266 3.416 1.8008 1.8008v3.7832c0 0.56 0.43828 1 0.98828 1h0.21094v4h-3v-10.584zm5.3008 5.3008 2.6992 2.6992v2.584h-4v-4h0.31055c0.55 0 0.99023-0.44 0.99023-1v-0.2832zm3.6992 3.6992 1.584 1.584h-1.584v-1.584z"/>
</svg>
