<?xml version="1.0" encoding="UTF-8"?>
<svg width="24" height="24" version="1.1" viewBox="0 0 24 24" xmlns="http://www.w3.org/2000/svg">
 <path d="m13.74 14h0.26v4h-4v-4h0.31c0.55 0 0.99-0.44 0.99-1v-7h1.45v7c0 0.56 0.44 1 0.99 1m-7.74-8h1.8v7c0 0.56 0.44 1 0.99 1h0.21v4h-3v-12m12 12h-3v-4h0.26c0.55 0 0.99-0.44 0.99-1v-7h1.75zm0.22222-14h-12.444c-0.97778 0-1.7778 0.8-1.7778 1.7778v12.444c0 0.97778 0.8 1.7778 1.7778 1.7778h12.444c0.97778 0 1.7778-0.8 1.7778-1.7778v-12.444c0-0.97778-0.8-1.7778-1.7778-1.7778"/>
</svg>
